<svg width="24" height="24" viewBox="0 0 24 24" fill="none" xmlns="http://www.w3.org/2000/svg">
<mask id="mask0_1_5374" style="mask-type:alpha" maskUnits="userSpaceOnUse" x="0" y="0" width="24" height="24">
<rect width="24" height="24" fill="#D9D9D9"/>
</mask>
<g mask="url(#mask0_1_5374)">
<path d="M18.9529 18.0111V20.1375C18.9529 20.1434 18.9588 20.1493 18.9647 20.1493H21.2075H18.9882C18.9764 20.1493 18.9706 20.1316 18.9764 20.1258C21.1374 18.2261 22.5034 15.4502 22.5034 12.3509C22.5034 6.64024 17.8695 2.00588 12.158 2C12.1522 2 12.1404 2.00588 12.1404 2.01764V4.97088" stroke="#8E97CD" stroke-miterlimit="10" stroke-linecap="round" stroke-linejoin="round"/>
<path d="M5.05053 5.98889L5.05053 3.86249C5.05053 3.85661 5.04464 3.85072 5.03876 3.85072L2.79589 3.85072L5.0152 3.85072C5.02698 3.85072 5.03287 3.86837 5.02698 3.87425C2.86606 5.77386 1.50002 8.54977 1.50002 11.6491C1.50002 17.3598 6.13394 21.9941 11.8454 22C11.8513 22 11.863 21.9941 11.863 21.9824L11.863 19.0291" stroke="#8E97CD" stroke-miterlimit="10" stroke-linecap="round" stroke-linejoin="round"/>
<circle cx="12.1165" cy="12.0026" r="6.91546" stroke="#8E97CD"/>
<path d="M7.82977 12.1687L10.656 14.2783C10.6605 14.2783 10.6605 14.2827 10.6649 14.2827L11.713 15.0621C11.8026 15.1293 11.928 15.0666 11.928 14.9546L11.9325 9.14537C11.9235 9.04235 11.9101 8.93486 11.8877 8.83184C11.8653 8.7333 11.834 8.63925 11.7892 8.55862C11.8653 9.12745 11.5428 9.79034 10.9964 10.2248C10.8755 10.3233 10.7097 10.4308 10.5261 10.507C10.329 10.5921 9.73332 10.7981 9.73332 10.7981L7.93726 11.4476C7.62821 11.5595 7.56551 11.9716 7.82977 12.1687Z" fill="#8E97CD"/>
<path d="M10.6342 10.4577C10.6387 10.4532 10.6477 10.4532 10.6522 10.4487C10.6611 10.4442 10.6701 10.4397 10.6835 10.4308C10.6969 10.4263 10.7059 10.4174 10.7193 10.4129C10.7238 10.4084 10.7328 10.4039 10.7372 10.4039C10.7507 10.395 10.7686 10.386 10.782 10.377C10.7865 10.3726 10.791 10.3726 10.7955 10.3681C10.8089 10.3591 10.8223 10.3502 10.8402 10.3412C10.8492 10.3367 10.8537 10.3323 10.8626 10.3278C10.8716 10.3188 10.885 10.3144 10.894 10.3054C10.9074 10.2964 10.9208 10.283 10.9388 10.2741C10.9432 10.2741 10.9432 10.2696 10.9477 10.2696C10.9656 10.2561 10.9835 10.2427 11.0015 10.2293C11.5478 9.79489 11.8702 9.13212 11.7941 8.56339C11.7627 8.50965 11.7224 8.46039 11.6777 8.42457L10.7462 7.73493C10.6566 7.66776 10.5268 7.73045 10.5268 7.84241V9.46798C10.5268 10.489 9.73413 10.798 9.73413 10.798C9.73413 10.798 10.3342 10.5965 10.5268 10.5114C10.5626 10.4935 10.5984 10.4756 10.6342 10.4577Z" fill="#7C83B2"/>
<path d="M16.4652 11.9574L13.639 9.84785C13.6345 9.84785 13.6345 9.84337 13.63 9.84337L12.5819 9.06404C12.4924 8.99685 12.3669 9.05956 12.3669 9.17153V14.9807C12.3759 15.0838 12.3893 15.1913 12.4117 15.2943C12.4341 15.3928 12.4655 15.4869 12.5103 15.5675C12.4341 14.9987 12.7566 14.3358 13.303 13.9013C13.424 13.8028 13.5897 13.6953 13.7733 13.6191C13.9659 13.534 14.5661 13.3325 14.5661 13.3325L16.3622 12.683C16.6712 12.5666 16.7295 12.1545 16.4652 11.9574Z" fill="#8E97CD"/>
<path d="M13.667 13.6689C13.6625 13.6733 13.6536 13.6733 13.6491 13.6778C13.6401 13.6823 13.6312 13.6868 13.6177 13.6957C13.6043 13.7002 13.5954 13.7092 13.5819 13.7136C13.5774 13.7181 13.5685 13.7226 13.564 13.7226C13.5506 13.7316 13.5327 13.7405 13.5192 13.7495C13.5147 13.7539 13.5103 13.7539 13.5058 13.7584C13.4924 13.7674 13.4789 13.7763 13.461 13.7853C13.4521 13.7898 13.4476 13.7943 13.4386 13.7987C13.4297 13.8077 13.4162 13.8122 13.4073 13.8211C13.3938 13.8301 13.3804 13.8435 13.3625 13.8525C13.358 13.8525 13.358 13.8569 13.3535 13.8569C13.3356 13.8704 13.3177 13.8838 13.2998 13.8972C12.7535 14.3316 12.431 14.9944 12.5072 15.5631C12.5385 15.6169 12.5788 15.6661 12.6236 15.702L13.5506 16.3916C13.6401 16.4588 13.77 16.3961 13.77 16.2841V14.6585C13.77 13.642 14.5626 13.3285 14.5626 13.3285C14.5626 13.3285 13.9626 13.53 13.77 13.6151C13.7387 13.633 13.7028 13.651 13.667 13.6689Z" fill="#7C83B3"/>
</g>
</svg>
