<svg width="55" height="38" viewBox="0 0 55 38" fill="none" xmlns="http://www.w3.org/2000/svg">
<rect x="0.5" y="0.5" width="54" height="37" rx="7.5" fill="#F8845B" fill-opacity="0.2" stroke="url(#paint0_linear_22_5663)"/>
<rect x="54.5" y="37.5" width="54" height="37" rx="7.5" transform="rotate(-180 54.5 37.5)" stroke="url(#paint1_linear_22_5663)"/>
<path d="M22.0195 10.1208C23.5344 10.1474 24.5995 10.6847 25.433 11.5677C26.1872 12.3763 26.637 13.3018 26.9876 14.2594C27.4639 15.552 27.7153 16.8819 27.9865 18.2117C28.4364 20.3874 29.0185 22.5365 30.1167 24.5739C30.4872 25.2654 30.937 25.9197 31.5919 26.4729C31.8499 26.691 32.141 26.8772 32.485 26.9996C33.1069 27.2177 33.6625 27.1379 34.1455 26.7549C34.7409 26.2867 35.1113 25.6963 35.4222 25.0899C36.1169 23.7493 36.5072 22.3344 36.8181 20.9087C36.9372 20.3449 37.0364 19.781 37.1224 19.2171C37.1819 18.8288 37.5921 18.5841 38.075 18.6373C38.505 18.6852 38.7961 19.0256 38.7432 19.398C38.4918 21.1268 38.1015 22.8344 37.4399 24.4941C37.043 25.4888 36.5601 26.457 35.7464 27.2868C35.2436 27.7975 34.6482 28.2177 33.8412 28.3667C32.6636 28.5848 31.6647 28.2709 30.7782 27.6645C29.9182 27.0794 29.3361 26.3187 28.8532 25.5154C27.8278 23.8185 27.2589 22.0099 26.7627 20.18C26.4187 18.9086 26.2401 17.616 25.9225 16.3446C25.6645 15.2967 25.347 14.2594 24.7847 13.2859C24.4605 12.7273 24.0769 12.206 23.4484 11.823C22.5619 11.2804 21.5299 11.3283 20.7295 11.9507C20.0481 12.4826 19.6247 13.1529 19.2609 13.8444C18.5795 15.153 18.1892 16.5255 17.8849 17.9192C17.7856 18.382 17.7129 18.8501 17.6335 19.3182C17.5673 19.7225 17.177 19.9778 16.6875 19.9299C16.2509 19.8874 15.9532 19.5469 16.0061 19.1586C16.2376 17.5787 16.6147 16.0254 17.2167 14.5147C17.6533 13.4082 18.1958 12.339 19.1087 11.4241C19.7372 10.8017 20.4913 10.3176 21.5035 10.174C21.7085 10.1421 21.9136 10.1314 22.0195 10.1208Z" fill="url(#paint2_linear_22_5663)"/>
<path d="M22.0195 8C23.5344 8.03276 24.5995 8.69445 25.433 9.78198C26.1872 10.7778 26.637 11.9177 26.9876 13.097C27.4639 14.689 27.7153 16.3268 27.9865 17.9647C28.4364 20.6442 29.0185 23.2909 30.1167 25.8001C30.4872 26.6518 30.937 27.4576 31.5919 28.139C31.8499 28.4076 32.141 28.6369 32.485 28.7875C33.1069 29.0561 33.6625 28.9579 34.1455 28.4862C34.7409 27.9097 35.1113 27.1825 35.4222 26.4356C36.1169 24.7846 36.5072 23.042 36.8181 21.2862C36.9372 20.5918 37.0364 19.8973 37.1224 19.2029C37.1819 18.7246 37.5921 18.4233 38.075 18.4888C38.505 18.5477 38.7961 18.967 38.7432 19.4256C38.4918 21.5548 38.1015 23.6578 37.4399 25.7018C37.043 26.9269 36.5601 28.1193 35.7464 29.1413C35.2436 29.7702 34.6482 30.2878 33.8412 30.4712C32.6636 30.7399 31.6647 30.3533 30.7782 29.6065C29.9182 28.8858 29.3361 27.949 28.8532 26.9597C27.8278 24.8698 27.2589 22.6423 26.7627 20.3887C26.4187 18.8229 26.2401 17.2309 25.9225 15.6651C25.6645 14.3745 25.347 13.097 24.7847 11.8981C24.4605 11.2102 24.0769 10.5681 23.4484 10.0964C22.5619 9.4282 21.5299 9.48716 20.7295 10.2537C20.0481 10.9088 19.6247 11.7343 19.2609 12.586C18.5795 14.1976 18.1892 15.8879 17.8849 17.6043C17.7856 18.1743 17.7129 18.7508 17.6335 19.3273C17.5673 19.8252 17.177 20.1397 16.6875 20.0808C16.2509 20.0283 15.9532 19.6091 16.0061 19.1308C16.2376 17.185 16.6147 15.272 17.2167 13.4114C17.6533 12.0488 18.1958 10.7319 19.1087 9.60509C19.7372 8.83858 20.4913 8.2424 21.5035 8.06551C21.7085 8.02621 21.9136 8.0131 22.0195 8Z" fill="url(#paint3_linear_22_5663)"/>
<path d="M22.0195 12.1451C23.5344 12.1658 24.5995 12.5843 25.433 13.2721C26.1872 13.902 26.637 14.623 26.9876 15.3688C27.4639 16.3757 27.7153 17.4116 27.9865 18.4475C28.4364 20.1422 29.0185 21.8163 30.1167 23.4033C30.4872 23.9419 30.937 24.4516 31.5919 24.8825C31.8499 25.0524 32.141 25.1975 32.485 25.2928C33.1069 25.4626 33.6625 25.4005 34.1455 25.1021C34.7409 24.7375 35.1113 24.2776 35.4222 23.8052C36.1169 22.761 36.5072 21.6588 36.8181 20.5483C36.9372 20.1091 37.0364 19.6699 37.1224 19.2307C37.1819 18.9282 37.5921 18.7376 38.075 18.779C38.505 18.8163 38.7961 19.0815 38.7432 19.3715C38.4918 20.7182 38.1015 22.0483 37.4399 23.3411C37.043 24.116 36.5601 24.8701 35.7464 25.5165C35.2436 25.9143 34.6482 26.2416 33.8412 26.3577C32.6636 26.5275 31.6647 26.2831 30.7782 25.8107C29.9182 25.3549 29.3361 24.7624 28.8532 24.1367C27.8278 22.8149 27.2589 21.406 26.7627 19.9806C26.4187 18.9903 26.2401 17.9834 25.9225 16.9931C25.6645 16.1768 25.347 15.3688 24.7847 14.6105C24.4605 14.1754 24.0769 13.7694 23.4484 13.471C22.5619 13.0484 21.5299 13.0857 20.7295 13.5705C20.0481 13.9848 19.6247 14.5069 19.2609 15.0456C18.5795 16.0649 18.1892 17.134 17.8849 18.2196C17.7856 18.5801 17.7129 18.9447 17.6335 19.3094C17.5673 19.6243 17.177 19.8232 16.6875 19.7859C16.2509 19.7527 15.9532 19.4876 16.0061 19.1851C16.2376 17.9544 16.6147 16.7445 17.2167 15.5677C17.6533 14.7058 18.1958 13.873 19.1087 13.1603C19.7372 12.6755 20.4913 12.2984 21.5035 12.1865C21.7085 12.1617 21.9136 12.1534 22.0195 12.1451Z" fill="url(#paint4_linear_22_5663)"/>
<defs>
<linearGradient id="paint0_linear_22_5663" x1="9.27143" y1="35.5" x2="-7.63456" y2="22.2167" gradientUnits="userSpaceOnUse">
<stop stop-color="#F0613B" stop-opacity="0"/>
<stop offset="0.412686" stop-color="#F0613B"/>
<stop offset="1" stop-color="#F0613B" stop-opacity="0"/>
</linearGradient>
<linearGradient id="paint1_linear_22_5663" x1="64.2714" y1="73.5" x2="47.3654" y2="60.2167" gradientUnits="userSpaceOnUse">
<stop stop-color="#F0613B" stop-opacity="0"/>
<stop offset="0.412686" stop-color="#F0613B"/>
<stop offset="1" stop-color="#F0613B" stop-opacity="0"/>
</linearGradient>
<linearGradient id="paint2_linear_22_5663" x1="27.3757" y1="7.88269" x2="27.3757" y2="29.1413" gradientUnits="userSpaceOnUse">
<stop offset="0.0874372" stop-color="#F7835A" stop-opacity="0"/>
<stop offset="0.536458" stop-color="#F0603A"/>
<stop offset="1" stop-color="#F7835A" stop-opacity="0"/>
</linearGradient>
<linearGradient id="paint3_linear_22_5663" x1="27.3757" y1="5.24361" x2="27.3757" y2="31.4253" gradientUnits="userSpaceOnUse">
<stop offset="0.0874372" stop-color="#F8835A" stop-opacity="0"/>
<stop offset="0.536458" stop-color="#F0603A"/>
<stop offset="1" stop-color="#F7835A" stop-opacity="0"/>
</linearGradient>
<linearGradient id="paint4_linear_22_5663" x1="27.3747" y1="12.1451" x2="27.3747" y2="26.4116" gradientUnits="userSpaceOnUse">
<stop stop-color="#F8835A"/>
<stop offset="0.479167" stop-color="#F0603A"/>
<stop offset="1" stop-color="#F8835A"/>
</linearGradient>
</defs>
</svg>
