<svg width="175" height="38" viewBox="0 0 175 38" fill="none" xmlns="http://www.w3.org/2000/svg">
<rect x="0.5" y="0.5" width="174" height="37" rx="7.5" fill="#F8845B" fill-opacity="0.2" stroke="url(#paint0_linear_1_4596)"/>
<rect x="174.5" y="37.5" width="174" height="37" rx="7.5" transform="rotate(-180 174.5 37.5)" stroke="url(#paint1_linear_1_4596)"/>
<g filter="url(#filter0_d_1_4596)">
<path d="M48.2148 22.0674C48.2148 21.9714 48.2468 21.8914 48.3108 21.8274C48.3855 21.7528 48.4655 21.7154 48.5508 21.7154H56.6148C56.8815 21.7154 57.1108 21.6248 57.3028 21.4434C57.4948 21.2514 57.5908 21.0221 57.5908 20.7554V16.8034C57.5908 16.5368 57.4948 16.3074 57.3028 16.1154C57.1108 15.9234 56.8815 15.8274 56.6148 15.8274H48.5508C48.4655 15.8274 48.3855 15.7954 48.3108 15.7314C48.2468 15.6674 48.2148 15.5874 48.2148 15.4914V14.3234C48.2148 14.2274 48.2468 14.1474 48.3108 14.0834C48.3855 14.0088 48.4655 13.9714 48.5508 13.9714H56.9988C57.6708 13.9714 58.2468 14.2114 58.7268 14.6914C59.2068 15.1714 59.4468 15.7474 59.4468 16.4194V21.1234C59.4468 21.7954 59.2068 22.3714 58.7268 22.8514C58.2468 23.3314 57.6708 23.5714 56.9988 23.5714H48.5508C48.4655 23.5714 48.3855 23.5394 48.3108 23.4754C48.2468 23.4008 48.2148 23.3208 48.2148 23.2354V22.0674Z" fill="#F36D46"/>
<path d="M62.2158 16.3554C62.0238 16.0248 61.7732 15.8434 61.4638 15.8114H60.9038C60.8185 15.8114 60.7385 15.7794 60.6638 15.7154C60.5998 15.6514 60.5678 15.5714 60.5678 15.4754V14.3074C60.5678 14.2221 60.5945 14.1474 60.6478 14.0834C60.7118 14.0194 60.7865 13.9874 60.8718 13.9874L61.9118 13.9714C62.6265 13.9821 63.1598 14.2914 63.5118 14.8994L64.3598 16.3554L64.8398 17.1874L64.9678 17.4274C65.1385 17.7261 65.3998 17.8754 65.7518 17.8754H67.2078C67.5598 17.8754 67.8212 17.7261 67.9918 17.4274L68.1198 17.1874L68.5998 16.3554L69.4478 14.8994C69.7998 14.2914 70.3278 13.9821 71.0318 13.9714L72.0718 13.9874C72.1572 13.9874 72.2318 14.0194 72.2958 14.0834C72.3598 14.1474 72.3918 14.2221 72.3918 14.3074V15.4754C72.3918 15.5714 72.3545 15.6514 72.2798 15.7154C72.2158 15.7794 72.1358 15.8114 72.0398 15.8114H71.4958C71.1865 15.8434 70.9358 16.0248 70.7438 16.3554L70.2638 17.1874L70.2478 17.2034L69.7998 17.9874L69.6398 18.2434L69.3358 18.7874V18.8034C68.9732 19.4114 68.4398 19.7154 67.7358 19.7154H67.3998V23.2354C67.3998 23.3208 67.3678 23.4008 67.3038 23.4754C67.2398 23.5394 67.1598 23.5714 67.0638 23.5714H65.8958C65.7998 23.5714 65.7198 23.5394 65.6558 23.4754C65.5918 23.4008 65.5598 23.3208 65.5598 23.2354V19.7154H65.2238C64.5092 19.7154 63.9758 19.4114 63.6238 18.8034V18.7874L63.3038 18.2434L63.1598 17.9874L62.6958 17.2034V17.1874L62.2158 16.3554Z" fill="#F36D46"/>
<path d="M75.9306 18.6434H81.8826C82.1493 18.6434 82.3786 18.5528 82.5706 18.3714C82.7626 18.1794 82.8586 17.9501 82.8586 17.6834V16.8034C82.8586 16.5368 82.7626 16.3074 82.5706 16.1154C82.3786 15.9234 82.1493 15.8274 81.8826 15.8274H73.8186C73.7333 15.8274 73.6533 15.7954 73.5786 15.7314C73.5146 15.6674 73.4826 15.5874 73.4826 15.4914V14.3234C73.4826 14.2274 73.5146 14.1474 73.5786 14.0834C73.6533 14.0088 73.7333 13.9714 73.8186 13.9714H82.2666C82.9386 13.9714 83.5146 14.2114 83.9946 14.6914C84.4746 15.1714 84.7146 15.7474 84.7146 16.4194V18.0514C84.7146 18.4888 84.6026 18.8994 84.3786 19.2834C84.1546 19.6568 83.8559 19.9554 83.4826 20.1794C83.1093 20.3928 82.7039 20.4994 82.2666 20.4994H76.2986C76.0319 20.4994 75.8026 20.5954 75.6106 20.7874C75.4293 20.9688 75.3386 21.1928 75.3386 21.4594V23.2354C75.3386 23.3208 75.3013 23.4008 75.2266 23.4754C75.1626 23.5394 75.0826 23.5714 74.9866 23.5714H73.8186C73.7333 23.5714 73.6533 23.5394 73.5786 23.4754C73.5146 23.4008 73.4826 23.3208 73.4826 23.2354V21.0914C73.4826 20.4194 73.7226 19.8434 74.2026 19.3634C74.6826 18.8834 75.2586 18.6434 75.9306 18.6434Z" fill="#F36D46"/>
<path d="M96.688 15.8274H92.336C92.2507 15.8274 92.1707 15.7954 92.096 15.7314C92.032 15.6674 92 15.5874 92 15.4914V14.3234C92 14.2274 92.032 14.1474 92.096 14.0834C92.1707 14.0088 92.2507 13.9714 92.336 13.9714H102.88C102.976 13.9714 103.056 14.0088 103.12 14.0834C103.195 14.1474 103.232 14.2274 103.232 14.3234V15.4914C103.232 15.5874 103.195 15.6674 103.12 15.7314C103.056 15.7954 102.976 15.8274 102.88 15.8274H98.544V23.2354C98.544 23.3208 98.5067 23.4008 98.432 23.4754C98.368 23.5394 98.288 23.5714 98.192 23.5714H97.024C96.9387 23.5714 96.8587 23.5394 96.784 23.4754C96.72 23.4008 96.688 23.3208 96.688 23.2354V15.8274Z" fill="#F36D46"/>
<path d="M104.337 16.4194C104.337 15.7474 104.577 15.1714 105.057 14.6914C105.537 14.2114 106.113 13.9714 106.785 13.9714H113.713C114.385 13.9714 114.961 14.2114 115.441 14.6914C115.921 15.1714 116.161 15.7474 116.161 16.4194V21.1234C116.161 21.7954 115.921 22.3714 115.441 22.8514C114.961 23.3314 114.385 23.5714 113.713 23.5714H106.785C106.113 23.5714 105.537 23.3314 105.057 22.8514C104.577 22.3714 104.337 21.7954 104.337 21.1234V16.4194ZM106.193 20.7554C106.193 21.0221 106.284 21.2514 106.465 21.4434C106.657 21.6248 106.886 21.7154 107.153 21.7154H113.345C113.516 21.7154 113.676 21.6728 113.825 21.5874C113.974 21.5021 114.092 21.3848 114.177 21.2354C114.262 21.0861 114.305 20.9261 114.305 20.7554V16.8034C114.305 16.5368 114.209 16.3074 114.017 16.1154C113.836 15.9234 113.612 15.8274 113.345 15.8274H107.153C106.886 15.8274 106.657 15.9234 106.465 16.1154C106.284 16.3074 106.193 16.5368 106.193 16.8034V20.7554Z" fill="#F36D46"/>
<path d="M117.268 16.4194C117.268 15.7474 117.508 15.1714 117.988 14.6914C118.468 14.2114 119.044 13.9714 119.716 13.9714H126.644C127.316 13.9714 127.892 14.2114 128.372 14.6914C128.852 15.1714 129.092 15.7474 129.092 16.4194V21.1234C129.092 21.7954 128.852 22.3714 128.372 22.8514C127.892 23.3314 127.316 23.5714 126.644 23.5714H119.716C119.044 23.5714 118.468 23.3314 117.988 22.8514C117.508 22.3714 117.268 21.7954 117.268 21.1234V16.4194ZM119.124 20.7554C119.124 21.0221 119.214 21.2514 119.396 21.4434C119.588 21.6248 119.817 21.7154 120.084 21.7154H126.276C126.446 21.7154 126.606 21.6728 126.756 21.5874C126.905 21.5021 127.022 21.3848 127.108 21.2354C127.193 21.0861 127.236 20.9261 127.236 20.7554V16.8034C127.236 16.5368 127.14 16.3074 126.948 16.1154C126.766 15.9234 126.542 15.8274 126.276 15.8274H120.084C119.817 15.8274 119.588 15.9234 119.396 16.1154C119.214 16.3074 119.124 16.5368 119.124 16.8034V20.7554Z" fill="#F36D46"/>
<path d="M130.199 21.1234V14.3234C130.199 14.2274 130.231 14.1474 130.295 14.0834C130.369 14.0088 130.449 13.9714 130.535 13.9714H131.702C131.799 13.9714 131.879 14.0088 131.943 14.0834C132.017 14.1474 132.055 14.2274 132.055 14.3234V20.7554C132.055 21.0221 132.145 21.2514 132.326 21.4434C132.519 21.6248 132.748 21.7154 133.015 21.7154H139.271C139.334 21.7154 139.393 21.7314 139.447 21.7634C139.5 21.7954 139.537 21.8381 139.559 21.8914C139.59 21.9448 139.606 22.0034 139.606 22.0674V23.2354C139.606 23.3208 139.575 23.4008 139.511 23.4754C139.447 23.5394 139.367 23.5714 139.271 23.5714H132.646C131.974 23.5714 131.399 23.3314 130.919 22.8514C130.439 22.3714 130.199 21.7954 130.199 21.1234Z" fill="#F36D46"/>
<path d="M141.011 22.0674C141.011 21.9714 141.043 21.8914 141.107 21.8274C141.171 21.7528 141.251 21.7154 141.347 21.7154H148.883C149.15 21.7154 149.374 21.6248 149.555 21.4434C149.747 21.2514 149.843 21.0221 149.843 20.7554V20.6594C149.843 20.4888 149.8 20.3288 149.715 20.1794C149.63 20.0301 149.512 19.9128 149.363 19.8274C149.214 19.7421 149.054 19.6994 148.883 19.6994H143.187C142.515 19.6994 141.939 19.4594 141.459 18.9794C140.979 18.4994 140.739 17.9234 140.739 17.2514V16.4194C140.739 15.7474 140.979 15.1714 141.459 14.6914C141.939 14.2114 142.515 13.9714 143.187 13.9714H151.091C151.187 13.9714 151.267 14.0088 151.331 14.0834C151.395 14.1474 151.427 14.2274 151.427 14.3234V15.4914C151.427 15.5874 151.395 15.6674 151.331 15.7314C151.267 15.7954 151.187 15.8274 151.091 15.8274H143.555C143.288 15.8274 143.059 15.9234 142.867 16.1154C142.686 16.3074 142.595 16.5368 142.595 16.8034V16.8834C142.595 17.1501 142.686 17.3794 142.867 17.5714C143.059 17.7528 143.288 17.8434 143.555 17.8434H149.251C149.923 17.8434 150.499 18.0834 150.979 18.5634C151.459 19.0434 151.699 19.6194 151.699 20.2914V21.1234C151.699 21.7954 151.459 22.3714 150.979 22.8514C150.499 23.3314 149.923 23.5714 149.251 23.5714H141.347C141.251 23.5714 141.171 23.5394 141.107 23.4754C141.043 23.4008 141.011 23.3208 141.011 23.2354V22.0674Z" fill="#F36D46"/>
<path d="M23.0195 10.1208C24.5344 10.1474 25.5995 10.6847 26.433 11.5677C27.1872 12.3763 27.637 13.3018 27.9876 14.2594C28.4639 15.552 28.7153 16.8819 28.9865 18.2117C29.4364 20.3874 30.0185 22.5365 31.1167 24.5739C31.4872 25.2654 31.937 25.9197 32.5919 26.4729C32.8499 26.691 33.141 26.8772 33.485 26.9996C34.1069 27.2177 34.6625 27.1379 35.1455 26.7549C35.7409 26.2867 36.1113 25.6963 36.4222 25.0899C37.1169 23.7493 37.5072 22.3344 37.8181 20.9087C37.9372 20.3449 38.0364 19.781 38.1224 19.2171C38.1819 18.8288 38.5921 18.5841 39.075 18.6373C39.505 18.6852 39.7961 19.0256 39.7432 19.398C39.4918 21.1268 39.1015 22.8344 38.4399 24.4941C38.043 25.4888 37.5601 26.457 36.7464 27.2868C36.2436 27.7975 35.6482 28.2177 34.8412 28.3667C33.6636 28.5848 32.6647 28.2709 31.7782 27.6645C30.9182 27.0794 30.3361 26.3187 29.8532 25.5154C28.8278 23.8185 28.2589 22.0099 27.7627 20.18C27.4187 18.9086 27.2401 17.616 26.9225 16.3446C26.6645 15.2967 26.347 14.2594 25.7847 13.2859C25.4605 12.7273 25.0769 12.206 24.4484 11.823C23.5619 11.2804 22.5299 11.3283 21.7295 11.9507C21.0481 12.4826 20.6247 13.1529 20.2609 13.8444C19.5795 15.153 19.1892 16.5255 18.8849 17.9192C18.7856 18.382 18.7129 18.8501 18.6335 19.3182C18.5673 19.7225 18.177 19.9778 17.6875 19.9299C17.2509 19.8874 16.9532 19.5469 17.0061 19.1586C17.2376 17.5787 17.6147 16.0254 18.2167 14.5147C18.6533 13.4082 19.1958 12.339 20.1087 11.4241C20.7372 10.8017 21.4913 10.3176 22.5035 10.174C22.7085 10.1421 22.9136 10.1314 23.0195 10.1208Z" fill="url(#paint2_linear_1_4596)"/>
<path d="M23.0195 8C24.5344 8.03276 25.5995 8.69445 26.433 9.78198C27.1872 10.7778 27.637 11.9177 27.9876 13.097C28.4639 14.689 28.7153 16.3268 28.9865 17.9647C29.4364 20.6442 30.0185 23.2909 31.1167 25.8001C31.4872 26.6518 31.937 27.4576 32.5919 28.139C32.8499 28.4076 33.141 28.6369 33.485 28.7875C34.1069 29.0561 34.6625 28.9579 35.1455 28.4862C35.7409 27.9097 36.1113 27.1825 36.4222 26.4356C37.1169 24.7846 37.5072 23.042 37.8181 21.2862C37.9372 20.5918 38.0364 19.8973 38.1224 19.2029C38.1819 18.7246 38.5921 18.4233 39.075 18.4888C39.505 18.5477 39.7961 18.967 39.7432 19.4256C39.4918 21.5548 39.1015 23.6578 38.4399 25.7018C38.043 26.9269 37.5601 28.1193 36.7464 29.1413C36.2436 29.7702 35.6482 30.2878 34.8412 30.4712C33.6636 30.7399 32.6647 30.3533 31.7782 29.6065C30.9182 28.8858 30.3361 27.949 29.8532 26.9597C28.8278 24.8698 28.2589 22.6423 27.7627 20.3887C27.4187 18.8229 27.2401 17.2309 26.9225 15.6651C26.6645 14.3745 26.347 13.097 25.7847 11.8981C25.4605 11.2102 25.0769 10.5681 24.4484 10.0964C23.5619 9.4282 22.5299 9.48716 21.7295 10.2537C21.0481 10.9088 20.6247 11.7343 20.2609 12.586C19.5795 14.1976 19.1892 15.8879 18.8849 17.6043C18.7856 18.1743 18.7129 18.7508 18.6335 19.3273C18.5673 19.8252 18.177 20.1397 17.6875 20.0808C17.2509 20.0283 16.9532 19.6091 17.0061 19.1308C17.2376 17.185 17.6147 15.272 18.2167 13.4114C18.6533 12.0488 19.1958 10.7319 20.1087 9.60509C20.7372 8.83858 21.4913 8.2424 22.5035 8.06551C22.7085 8.02621 22.9136 8.0131 23.0195 8Z" fill="url(#paint3_linear_1_4596)"/>
<path d="M23.0195 12.1451C24.5344 12.1658 25.5995 12.5843 26.433 13.2721C27.1872 13.902 27.637 14.623 27.9876 15.3688C28.4639 16.3757 28.7153 17.4116 28.9865 18.4475C29.4364 20.1422 30.0185 21.8163 31.1167 23.4033C31.4872 23.9419 31.937 24.4516 32.5919 24.8825C32.8499 25.0524 33.141 25.1975 33.485 25.2928C34.1069 25.4626 34.6625 25.4005 35.1455 25.1021C35.7409 24.7375 36.1113 24.2776 36.4222 23.8052C37.1169 22.761 37.5072 21.6588 37.8181 20.5483C37.9372 20.1091 38.0364 19.6699 38.1224 19.2307C38.1819 18.9282 38.5921 18.7376 39.075 18.779C39.505 18.8163 39.7961 19.0815 39.7432 19.3715C39.4918 20.7182 39.1015 22.0483 38.4399 23.3411C38.043 24.116 37.5601 24.8701 36.7464 25.5165C36.2436 25.9143 35.6482 26.2416 34.8412 26.3577C33.6636 26.5275 32.6647 26.2831 31.7782 25.8107C30.9182 25.3549 30.3361 24.7624 29.8532 24.1367C28.8278 22.8149 28.2589 21.406 27.7627 19.9806C27.4187 18.9903 27.2401 17.9834 26.9225 16.9931C26.6645 16.1768 26.347 15.3688 25.7847 14.6105C25.4605 14.1754 25.0769 13.7694 24.4484 13.471C23.5619 13.0484 22.5299 13.0857 21.7295 13.5705C21.0481 13.9848 20.6247 14.5069 20.2609 15.0456C19.5795 16.0649 19.1892 17.134 18.8849 18.2196C18.7856 18.5801 18.7129 18.9447 18.6335 19.3094C18.5673 19.6243 18.177 19.8232 17.6875 19.7859C17.2509 19.7527 16.9532 19.4876 17.0061 19.1851C17.2376 17.9544 17.6147 16.7445 18.2167 15.5677C18.6533 14.7058 19.1958 13.873 20.1087 13.1603C20.7372 12.6755 21.4913 12.2984 22.5035 12.1865C22.7085 12.1617 22.9136 12.1534 23.0195 12.1451Z" fill="url(#paint4_linear_1_4596)"/>
</g>
<defs>
<filter id="filter0_d_1_4596" x="13" y="6" width="142.699" height="30.5566" filterUnits="userSpaceOnUse" color-interpolation-filters="sRGB">
<feFlood flood-opacity="0" result="BackgroundImageFix"/>
<feColorMatrix in="SourceAlpha" type="matrix" values="0 0 0 0 0 0 0 0 0 0 0 0 0 0 0 0 0 0 127 0" result="hardAlpha"/>
<feOffset dy="2"/>
<feGaussianBlur stdDeviation="2"/>
<feComposite in2="hardAlpha" operator="out"/>
<feColorMatrix type="matrix" values="0 0 0 0 0.316667 0 0 0 0 0.116227 0 0 0 0 0.0633333 0 0 0 0.15 0"/>
<feBlend mode="normal" in2="BackgroundImageFix" result="effect1_dropShadow_1_4596"/>
<feBlend mode="normal" in="SourceGraphic" in2="effect1_dropShadow_1_4596" result="shape"/>
</filter>
<linearGradient id="paint0_linear_1_4596" x1="29.5" y1="35.5" x2="17.5" y2="5.5" gradientUnits="userSpaceOnUse">
<stop stop-color="#F0613B" stop-opacity="0"/>
<stop offset="0.412686" stop-color="#F0613B"/>
<stop offset="1" stop-color="#F0613B" stop-opacity="0"/>
</linearGradient>
<linearGradient id="paint1_linear_1_4596" x1="204.5" y1="73.5" x2="192.5" y2="43.5" gradientUnits="userSpaceOnUse">
<stop stop-color="#F0613B" stop-opacity="0"/>
<stop offset="0.412686" stop-color="#F0613B"/>
<stop offset="1" stop-color="#F0613B" stop-opacity="0"/>
</linearGradient>
<linearGradient id="paint2_linear_1_4596" x1="28.3757" y1="7.88269" x2="28.3757" y2="29.1413" gradientUnits="userSpaceOnUse">
<stop offset="0.0874372" stop-color="#F7835A" stop-opacity="0"/>
<stop offset="0.536458" stop-color="#F0603A"/>
<stop offset="1" stop-color="#F7835A" stop-opacity="0"/>
</linearGradient>
<linearGradient id="paint3_linear_1_4596" x1="28.3757" y1="5.24361" x2="28.3757" y2="31.4253" gradientUnits="userSpaceOnUse">
<stop offset="0.0874372" stop-color="#F8835A" stop-opacity="0"/>
<stop offset="0.536458" stop-color="#F0603A"/>
<stop offset="1" stop-color="#F7835A" stop-opacity="0"/>
</linearGradient>
<linearGradient id="paint4_linear_1_4596" x1="28.3747" y1="12.1451" x2="28.3747" y2="26.4116" gradientUnits="userSpaceOnUse">
<stop stop-color="#F8835A"/>
<stop offset="0.479167" stop-color="#F0603A"/>
<stop offset="1" stop-color="#F8835A"/>
</linearGradient>
</defs>
</svg>
