<svg width="100" height="100" viewBox="0 0 100 100" fill="none" xmlns="http://www.w3.org/2000/svg">
<circle cx="50" cy="50" r="50" fill="url(#paint0_linear_384_3260)"/>
<path d="M19.1694 51.1715L39.4841 66.3351C39.5163 66.3351 39.5163 66.3673 39.5485 66.3673L47.082 71.9691C47.7259 72.452 48.6274 72.0013 48.6274 71.1965L48.6596 29.4401C48.5952 28.6997 48.4986 27.927 48.3376 27.1865C48.1767 26.4782 47.9513 25.8022 47.6293 25.2227C48.1767 29.3114 45.8586 34.0762 41.9309 37.199C41.0617 37.9073 39.8705 38.68 38.5505 39.2273C37.1339 39.839 32.8521 41.3199 32.8521 41.3199L19.9421 45.9881C17.7206 46.793 17.2699 49.7549 19.1694 51.1715Z" fill="#F2EEFF"/>
<path d="M39.3246 38.8742C39.3568 38.842 39.4212 38.842 39.4534 38.8098C39.5178 38.7776 39.5822 38.7454 39.6788 38.681C39.7753 38.6488 39.8397 38.5844 39.9363 38.5522C39.9685 38.52 40.0329 38.4878 40.0651 38.4878C40.1617 38.4234 40.2905 38.359 40.387 38.2947C40.4192 38.2625 40.4514 38.2625 40.4836 38.2303C40.5802 38.1659 40.6768 38.1015 40.8056 38.0371C40.87 38.0049 40.9022 37.9727 40.9665 37.9405C41.0309 37.8761 41.1275 37.8439 41.1919 37.7795C41.2885 37.7152 41.3851 37.6186 41.5138 37.5542C41.546 37.5542 41.546 37.522 41.5782 37.522C41.707 37.4254 41.8358 37.3288 41.9646 37.2322C45.8923 34.1094 48.2103 29.3446 47.663 25.2559C47.4376 24.8695 47.1479 24.5154 46.8259 24.2578L40.1295 19.2999C39.4856 18.817 38.5519 19.2677 38.5519 20.0726V31.7592C38.5519 39.0995 32.8535 41.3209 32.8535 41.3209C32.8535 41.3209 37.1676 39.8722 38.5519 39.2605C38.8095 39.1317 39.0671 39.0029 39.3246 38.8742Z" fill="#DBD9FF"/>
<path d="M81.2402 49.6586L60.9255 34.495C60.8933 34.495 60.8933 34.4628 60.8611 34.4628L53.3276 28.8609C52.6837 28.378 51.7822 28.8287 51.7822 29.6336V71.3899C51.8466 72.1304 51.9432 72.903 52.1042 73.6435C52.2651 74.3518 52.4905 75.0279 52.8125 75.6074C52.2651 71.5187 54.5832 66.7539 58.5109 63.631C59.3801 62.9227 60.5713 62.1501 61.8913 61.6028C63.2757 60.9911 67.5897 59.5423 67.5897 59.5423L80.4998 54.8741C82.7212 54.0371 83.1397 51.0752 81.2402 49.6586Z" fill="#F2EEFF"/>
<path d="M61.1186 61.9575C61.0864 61.9897 61.022 61.9897 60.9898 62.0219C60.9254 62.0541 60.861 62.0863 60.7645 62.1507C60.6679 62.1829 60.6035 62.2473 60.5069 62.2795C60.4747 62.3117 60.4103 62.3439 60.3781 62.3439C60.2815 62.4083 60.1528 62.4726 60.0562 62.537C60.024 62.5692 59.9918 62.5692 59.9596 62.6014C59.863 62.6658 59.7664 62.7302 59.6377 62.7946C59.5733 62.8268 59.5411 62.859 59.4767 62.8912C59.4123 62.9556 59.3157 62.9878 59.2513 63.0521C59.1547 63.1165 59.0582 63.2131 58.9294 63.2775C58.8972 63.2775 58.8972 63.3097 58.865 63.3097C58.7362 63.4063 58.6074 63.5029 58.4787 63.5994C54.5509 66.7223 52.2329 71.4871 52.7802 75.5758C53.0056 75.9622 53.2953 76.3163 53.6173 76.5738L60.2815 81.5318C60.9254 82.0147 61.8591 81.564 61.8591 80.7591V69.0725C61.8591 61.7644 67.5575 59.5107 67.5575 59.5107C67.5575 59.5107 63.2434 60.9595 61.8591 61.5712C61.6337 61.7 61.3762 61.8288 61.1186 61.9575Z" fill="#DBD9FF"/>
<defs>
<linearGradient id="paint0_linear_384_3260" x1="50" y1="0" x2="50" y2="100" gradientUnits="userSpaceOnUse">
<stop stop-color="#75CAC2"/>
<stop offset="1" stop-color="#57B6AB"/>
</linearGradient>
</defs>
</svg>
