<svg width="138" height="18" viewBox="0 0 138 18" fill="none" xmlns="http://www.w3.org/2000/svg">
<path d="M1.69944 6.30141H3.51409L0.489668 0.678179H3.51409L9.93738 12.6311L16.3319 0.678179H17.3112L19.846 17.2936H16.9944L15.4966 7.79906L10.3982 17.2936H9.41891L4.34941 7.88383L2.8516 17.2936H0L1.69944 6.30141ZM23.2736 0.678179H34.248V3.33438H26.1828V7.65777H32.4909V10.314H26.1828V14.6374H34.248V17.2936H23.2736V5.65149L26.1828 3.36264H23.2736V0.678179ZM36.4659 3.33438V0.678179H50.407V3.33438H36.4659ZM44.8766 17.2936H41.9674V5.65149L44.8766 3.36264V17.2936ZM55.0733 5.65149H57.4064L55.0733 0.678179H58.1265L65.8748 17.2936H62.8792L61.7846 14.9765H53.7483L52.6537 17.2936H49.6293L55.0733 5.65149ZM60.5172 12.3203L57.752 6.4427L55.0157 12.3203H60.5172ZM63.7145 0.678179H66.7389L71.8084 11.5008L76.9355 0.678179H79.9311L72.0676 17.5479H71.4915L70.2818 14.7504L71.4627 12.2637H69.1296L63.7145 0.678179ZM82.6675 0.678179H93.613V3.33438H85.5479V7.65777H91.8848V10.314H85.5767V14.6374H93.6418V17.2936H82.6675V5.65149L85.5767 3.36264H82.6675V0.678179ZM102.168 0.678179C108.85 0.678179 109.686 8.33595 104.674 10.2575L109.599 17.3218H106.143L101.563 10.7096H99.7195V17.3218H96.8103V5.65149L99.6619 3.36264H96.8103V0.678179H102.168ZM99.7195 3.36264V7.99686H102.168C105.855 7.99686 105.826 3.36264 102.168 3.36264H99.7195ZM123.828 13.2527C123.828 16.4741 120.574 18 117.693 18C115.187 18 112.624 17.124 111.097 15.1177L113.344 13.394C114.41 14.8069 116.138 15.2308 117.808 15.2308C119.105 15.2308 121.006 14.7504 121.006 13.1962C121.006 10.1444 112.508 10.314 111.673 5.70801H114.64C115.994 7.79906 123.828 7.94035 123.828 13.2527ZM111.788 3.30612C112.537 1.10204 114.87 0 117.376 0C119.565 0 121.783 0.932496 123.339 2.4584L121.438 4.54945C120.314 3.44741 118.874 2.82575 117.29 2.82575C115.85 2.82575 114.438 3.33438 114.438 4.97331C114.438 5.14286 114.467 5.28414 114.525 5.42543L111.788 3.30612ZM127.026 0.678179H137.971V3.33438H129.906V7.65777H136.243V10.314H129.935V14.6374H138V17.2936H127.026V5.65149L129.935 3.36264H127.026V0.678179Z" fill="url(#paint0_linear_534_5880)"/>
<defs>
<linearGradient id="paint0_linear_534_5880" x1="69" y1="0" x2="69" y2="18" gradientUnits="userSpaceOnUse">
<stop stop-color="#D54EC7"/>
<stop offset="1" stop-color="#714ED5"/>
</linearGradient>
</defs>
</svg>
