<svg width="32" height="32" viewBox="0 0 32 32" fill="none" xmlns="http://www.w3.org/2000/svg">
<rect width="32" height="32" rx="16" fill="#1D1E42"/>
<path fill-rule="evenodd" clip-rule="evenodd" d="M11.858 14.298L16.0015 10.1564L20.1466 14.3014L22.5562 11.8902L16.0015 5.33398L9.44672 11.8885L11.858 14.298ZM5.33301 16.0007L7.7434 13.5903L10.1538 16.0007L7.7434 18.411L5.33301 16.0007ZM16.0014 21.8471L11.8579 17.7037L9.44325 20.1115L9.44662 20.1149L16.0014 26.6678L22.5561 20.1115L22.5578 20.1099L20.1465 17.702L16.0014 21.8471ZM21.846 16.0024L24.2564 13.5921L26.6668 16.0024L24.2564 18.4127L21.846 16.0024ZM16.0018 13.5527L18.4468 15.9993H18.4485L18.4468 16.001L16.0018 18.4476L13.5569 16.0044L13.5535 15.9993L13.5569 15.9959L13.9849 15.568L14.1938 15.3607L16.0018 13.5527Z" fill="white"/>
</svg>
