<svg width="18" height="18" viewBox="0 0 18 18" fill="none" xmlns="http://www.w3.org/2000/svg">
<path d="M0 4C0 1.79086 1.79086 0 4 0H14C16.2091 0 18 1.79086 18 4V14C18 16.2091 16.2091 18 14 18H4C1.79086 18 0 16.2091 0 14V4Z" fill="url(#paint0_linear_128_7419)"/>
<path fill-rule="evenodd" clip-rule="evenodd" d="M6.67035 8.04228L9.00106 5.71259L11.3327 8.04417L12.6881 6.68788L9.00106 3L5.31401 6.68693L6.67035 8.04228ZM3 9.00021L4.35584 7.64441L5.71169 9.00021L4.35584 10.356L3 9.00021ZM9.00104 12.2883L6.67033 9.95767L5.3121 11.3121L5.31399 11.314L9.00104 14.9999L12.6881 11.3121L12.689 11.3111L11.3327 9.95672L9.00104 12.2883ZM12.2884 9.00053L13.6442 7.64473L15.0001 9.00053L13.6442 10.3563L12.2884 9.00053ZM9.00117 7.62334L10.3765 8.99954H10.3774L10.3765 9.00049L9.00117 10.3767L7.62588 9.00239L7.62398 8.99954L7.62588 8.99765L7.86662 8.75691L7.98415 8.64033L9.00117 7.62334Z" fill="white"/>
<defs>
<linearGradient id="paint0_linear_128_7419" x1="18" y1="18" x2="0" y2="0" gradientUnits="userSpaceOnUse">
<stop stop-color="#D1A000"/>
<stop offset="1" stop-color="#FFD632"/>
</linearGradient>
</defs>
</svg>
