<svg width="32" height="32" viewBox="0 0 32 32" fill="none" xmlns="http://www.w3.org/2000/svg">
<rect width="32" height="32" rx="16" fill="url(#paint0_linear_204_4346)"/>
<path fill-rule="evenodd" clip-rule="evenodd" d="M11.8576 14.2971L16.001 10.1554L20.1462 14.3004L22.5558 11.8892L16.001 5.33301L9.44629 11.8875L11.8576 14.2971ZM5.33301 16.0002L7.7434 13.5899L10.1538 16.0002L7.7434 18.4105L5.33301 16.0002ZM16.0013 21.8452L11.8578 17.7019L9.44316 20.1097L9.44653 20.1131L16.0013 26.6659L22.556 20.1097L22.5577 20.108L20.1464 17.7002L16.0013 21.8452ZM21.8463 16.0002L24.2567 13.5899L26.6671 16.0002L24.2567 18.4105L21.8463 16.0002ZM16.0017 13.5518L18.4466 15.9983H18.4483L18.4466 16L16.0017 18.4466L13.5567 16.0034L13.5533 15.9983L13.5567 15.995L13.9847 15.567L14.1936 15.3597L16.0017 13.5518Z" fill="white"/>
<defs>
<linearGradient id="paint0_linear_204_4346" x1="32" y1="32" x2="0" y2="0" gradientUnits="userSpaceOnUse">
<stop stop-color="#D1A000"/>
<stop offset="1" stop-color="#FFD632"/>
</linearGradient>
</defs>
</svg>
