<svg width="18" height="18" viewBox="0 0 18 18" fill="none" xmlns="http://www.w3.org/2000/svg">
<path d="M0 4C0 1.79086 1.79086 0 4 0H14C16.2091 0 18 1.79086 18 4V14C18 16.2091 16.2091 18 14 18H4C1.79086 18 0 16.2091 0 14V4Z" fill="url(#paint0_linear_22_6183)"/>
<path d="M9.12828 3.6001L9.05664 3.83743V10.7236L9.12828 10.7933L12.4054 8.90387L9.12828 3.6001Z" fill="#C1CCF8"/>
<path d="M9.12732 3.60016L5.8501 8.90393L9.12732 10.7934V7.451V3.60016Z" fill="white"/>
<path d="M9.12826 11.3983L9.08789 11.4463V13.8993L9.12826 14.0142L12.4074 9.50983L9.12826 11.3983Z" fill="#C1CCF8"/>
<path d="M9.12732 14.0142V11.3983L5.8501 9.50983L9.12732 14.0142Z" fill="white"/>
<path d="M9.12695 10.793L12.4041 8.90355L9.12695 7.45062V10.793Z" fill="#8197EE"/>
<path d="M5.8501 8.90355L9.12732 10.793V7.45062L5.8501 8.90355Z" fill="#C1CCF8"/>
<defs>
<linearGradient id="paint0_linear_22_6183" x1="18" y1="18" x2="0" y2="0" gradientUnits="userSpaceOnUse">
<stop stop-color="#556ECC"/>
<stop offset="1" stop-color="#627EEA"/>
</linearGradient>
</defs>
</svg>
