<svg width="18" height="18" viewBox="0 0 18 18" fill="none" xmlns="http://www.w3.org/2000/svg">
<path d="M0 4C0 1.79086 1.79086 0 4 0H14C16.2091 0 18 1.79086 18 4V14C18 16.2091 16.2091 18 14 18H4C1.79086 18 0 16.2091 0 14V4Z" fill="#1D1E42"/>
<path d="M9.12803 3.6001L9.0564 3.83743V10.7236L9.12803 10.7933L12.4052 8.90387L9.12803 3.6001Z" fill="#C1CCF8"/>
<path d="M9.12707 3.60016L5.84985 8.90393L9.12707 10.7934V7.451V3.60016Z" fill="white"/>
<path d="M9.12802 11.3983L9.08765 11.4463V13.8993L9.12802 14.0142L12.4072 9.50983L9.12802 11.3983Z" fill="#C1CCF8"/>
<path d="M9.12707 14.0142V11.3983L5.84985 9.50983L9.12707 14.0142Z" fill="white"/>
<path d="M9.12671 10.793L12.4038 8.90355L9.12671 7.45062V10.793Z" fill="#8197EE"/>
<path d="M5.84985 8.90355L9.12707 10.793V7.45062L5.84985 8.90355Z" fill="#C1CCF8"/>
</svg>
