<svg width="21" height="22" viewBox="0 0 21 22" fill="none" xmlns="http://www.w3.org/2000/svg">
<path d="M9.45572 21.0872L9.32017 21.033C6.25692 19.9756 2.21777 16.9663 0.997886 11.9778C-0.411752 6.17608 0.0761995 3.03119 0.103308 2.89563L0.130416 2.65163L0.347284 2.59741C0.347284 2.59741 1.48584 2.27208 4.54909 1.48586C7.8021 0.645413 9.34728 0.32008 9.37439 0.32008L9.45572 0.292969L9.53704 0.32008C9.56415 0.32008 11.1093 0.645413 14.3623 1.48586C17.4527 2.27208 18.5641 2.59741 18.5641 2.59741L18.781 2.65163L18.8081 2.89563C18.8352 3.03119 19.3232 6.17608 17.9135 11.9778C16.6937 16.9663 12.6545 19.9756 9.56415 21.0601L9.45572 21.0872Z" fill="url(#paint0_linear_281_1239)"/>
<path opacity="0.6" d="M9.45557 19.6646L9.33862 19.6179C6.69555 18.7074 3.21043 16.1158 2.15788 11.82C0.941602 6.82366 1.36262 4.11539 1.38601 3.99865L1.4094 3.78853L1.59652 3.74183C1.59652 3.74183 2.5789 3.46167 5.22197 2.7846C8.02878 2.06084 9.36201 1.78067 9.3854 1.78067L9.45557 1.75732L9.52574 1.78067C9.54913 1.78067 10.8824 2.06084 13.6892 2.7846C16.3556 3.46167 17.3146 3.74183 17.3146 3.74183L17.5017 3.78853L17.5251 3.99865C17.5485 4.11539 17.9695 6.82366 16.7533 11.82C15.7007 16.1158 12.2156 18.7074 9.54913 19.6413L9.45557 19.6646ZM1.99415 4.30217C1.92398 5.00258 1.78364 7.57077 2.78941 11.6565C3.7484 15.6489 6.95284 18.077 9.45557 18.9642C11.9583 18.077 15.1627 15.6489 16.1217 11.6565C17.1275 7.54742 16.9872 5.00258 16.917 4.30217C16.5194 4.18543 15.4668 3.90526 13.5254 3.39163C11.0695 2.76125 9.75964 2.48109 9.45557 2.43439C9.17489 2.48109 7.84166 2.76125 5.4091 3.39163C3.44433 3.90526 2.41517 4.18543 1.99415 4.30217Z" fill="white"/>
<circle cx="17.2821" cy="2.71956" r="2.71956" fill="#13D38E"/>
<g clip-path="url(#clip0_281_1239)">
<path d="M18.0007 2.27772H17.8846V2.04547C17.8846 1.72496 17.6245 1.46484 17.304 1.46484C16.9835 1.46484 16.7234 1.72496 16.7234 2.04547V2.27772H16.6072C16.4789 2.27772 16.375 2.38165 16.375 2.50997V3.67121C16.375 3.79953 16.4789 3.90346 16.6072 3.90346H18.0007C18.1291 3.90346 18.233 3.79953 18.233 3.67121V2.50997C18.233 2.38165 18.1291 2.27772 18.0007 2.27772ZM17.304 3.32284C17.1757 3.32284 17.0717 3.21891 17.0717 3.09059C17.0717 2.96227 17.1757 2.85834 17.304 2.85834C17.4323 2.85834 17.5362 2.96227 17.5362 3.09059C17.5362 3.21891 17.4323 3.32284 17.304 3.32284ZM17.664 2.27772H16.944V2.04547C16.944 1.84689 17.1054 1.68548 17.304 1.68548C17.5026 1.68548 17.664 1.84689 17.664 2.04547V2.27772Z" fill="white"/>
</g>
<g opacity="0.8">
<path d="M5.97266 14.309V12.9701H6.17466V14.1351H6.78133V14.309H5.97266Z" fill="white"/>
<path d="M6.96295 14.309V13.3048H7.15842V14.309H6.96295ZM7.06167 13.1499C7.02767 13.1499 6.99847 13.1386 6.97407 13.1159C6.95009 13.0928 6.93811 13.0653 6.93811 13.0335C6.93811 13.0013 6.95009 12.9738 6.97407 12.9512C6.99847 12.9281 7.02767 12.9165 7.06167 12.9165C7.09566 12.9165 7.12464 12.9281 7.14861 12.9512C7.17302 12.9738 7.18522 13.0013 7.18522 13.0335C7.18522 13.0653 7.17302 13.0928 7.14861 13.1159C7.12464 13.1386 7.09566 13.1499 7.06167 13.1499Z" fill="white"/>
<path d="M8.06618 14.6855V14.1527H8.05441C8.04265 14.1741 8.02565 14.1985 8.00342 14.2259C7.98163 14.2534 7.95156 14.2774 7.91321 14.2979C7.87485 14.3183 7.82517 14.3286 7.76415 14.3286C7.68309 14.3286 7.61074 14.3079 7.54711 14.2665C7.48392 14.2246 7.43423 14.1652 7.39806 14.088C7.36232 14.0104 7.34445 13.9174 7.34445 13.8089C7.34445 13.7003 7.36254 13.6075 7.39871 13.5304C7.43532 13.4532 7.48544 13.3942 7.54907 13.3532C7.6127 13.3122 7.68483 13.2918 7.76546 13.2918C7.82778 13.2918 7.8779 13.3022 7.91582 13.3231C7.95417 13.3436 7.98381 13.3676 8.00473 13.395C8.02608 13.4225 8.04265 13.4467 8.05441 13.4676H8.07076V13.3048H8.26165V14.6855H8.06618ZM7.8073 14.1619C7.86352 14.1619 7.91103 14.1471 7.94981 14.1174C7.98904 14.0874 8.01868 14.0457 8.03872 13.9926C8.05921 13.9394 8.06945 13.8775 8.06945 13.8069C8.06945 13.7372 8.05943 13.6762 8.03938 13.6239C8.01933 13.5716 7.98991 13.5308 7.95112 13.5016C7.91233 13.4724 7.86439 13.4578 7.8073 13.4578C7.74846 13.4578 7.69943 13.4731 7.66021 13.5036C7.62098 13.5341 7.59135 13.5757 7.5713 13.6284C7.55169 13.6812 7.54188 13.7407 7.54188 13.8069C7.54188 13.874 7.5519 13.9344 7.57195 13.988C7.592 14.0416 7.62164 14.0841 7.66086 14.1155C7.70052 14.1464 7.74933 14.1619 7.8073 14.1619Z" fill="white"/>
<path d="M9.12741 13.8925V13.3048H9.32353V14.309H9.13133V14.1351H9.12087C9.09777 14.1887 9.06073 14.2334 9.00973 14.2691C8.95918 14.3044 8.8962 14.322 8.8208 14.322C8.7563 14.322 8.69921 14.3079 8.64952 14.2796C8.60027 14.2508 8.56148 14.2083 8.53316 14.1521C8.50526 14.0959 8.49132 14.0263 8.49132 13.9435V13.3048H8.68679V13.92C8.68679 13.9884 8.70574 14.0429 8.74366 14.0834C8.78158 14.124 8.83083 14.1442 8.89141 14.1442C8.92802 14.1442 8.96441 14.1351 9.00058 14.1168C9.03719 14.0985 9.06748 14.0708 9.09145 14.0337C9.11586 13.9967 9.12784 13.9496 9.12741 13.8925Z" fill="white"/>
<path d="M9.55303 14.309V13.3048H9.7485V14.309H9.55303ZM9.65175 13.1499C9.61775 13.1499 9.58855 13.1386 9.56415 13.1159C9.54018 13.0928 9.52819 13.0653 9.52819 13.0335C9.52819 13.0013 9.54018 12.9738 9.56415 12.9512C9.58855 12.9281 9.61775 12.9165 9.65175 12.9165C9.68574 12.9165 9.71473 12.9281 9.7387 12.9512C9.7631 12.9738 9.77531 13.0013 9.77531 13.0335C9.77531 13.0653 9.7631 13.0928 9.7387 13.1159C9.71473 13.1386 9.68574 13.1499 9.65175 13.1499Z" fill="white"/>
<path d="M10.3542 14.3286C10.2732 14.3286 10.2008 14.3079 10.1372 14.2665C10.074 14.2246 10.0243 14.1652 9.98814 14.088C9.9524 14.0104 9.93453 13.9174 9.93453 13.8089C9.93453 13.7003 9.95262 13.6075 9.98879 13.5304C10.0254 13.4532 10.0755 13.3942 10.1392 13.3532C10.2028 13.3122 10.2749 13.2918 10.3555 13.2918C10.4179 13.2918 10.468 13.3022 10.5059 13.3231C10.5443 13.3436 10.5739 13.3676 10.5948 13.395C10.6162 13.4225 10.6327 13.4467 10.6445 13.4676H10.6563V12.9701H10.8517V14.309H10.6608V14.1527H10.6445C10.6327 14.1741 10.6157 14.1985 10.5935 14.2259C10.5717 14.2534 10.5416 14.2774 10.5033 14.2979C10.4649 14.3183 10.4152 14.3286 10.3542 14.3286ZM10.3974 14.1619C10.4536 14.1619 10.5011 14.1471 10.5399 14.1174C10.5791 14.0874 10.6088 14.0457 10.6288 13.9926C10.6493 13.9394 10.6595 13.8775 10.6595 13.8069C10.6595 13.7372 10.6495 13.6762 10.6295 13.6239C10.6094 13.5716 10.58 13.5308 10.5412 13.5016C10.5024 13.4724 10.4545 13.4578 10.3974 13.4578C10.3385 13.4578 10.2895 13.4731 10.2503 13.5036C10.2111 13.5341 10.1814 13.5757 10.1614 13.6284C10.1418 13.6812 10.132 13.7407 10.132 13.8069C10.132 13.874 10.142 13.9344 10.162 13.988C10.1821 14.0416 10.2117 14.0841 10.2509 14.1155C10.2906 14.1464 10.3394 14.1619 10.3974 14.1619Z" fill="white"/>
<path d="M11.0976 14.309V13.3048H11.293V14.309H11.0976ZM11.1963 13.1499C11.1623 13.1499 11.1331 13.1386 11.1087 13.1159C11.0847 13.0928 11.0727 13.0653 11.0727 13.0335C11.0727 13.0013 11.0847 12.9738 11.1087 12.9512C11.1331 12.9281 11.1623 12.9165 11.1963 12.9165C11.2303 12.9165 11.2593 12.9281 11.2832 12.9512C11.3076 12.9738 11.3199 13.0013 11.3199 13.0335C11.3199 13.0653 11.3076 13.0928 11.2832 13.1159C11.2593 13.1386 11.2303 13.1499 11.1963 13.1499Z" fill="white"/>
<path d="M11.9916 13.3048V13.4617H11.4431V13.3048H11.9916ZM11.5902 13.0642H11.7857V14.0141C11.7857 14.0521 11.7913 14.0806 11.8027 14.0998C11.814 14.1185 11.8286 14.1314 11.8465 14.1383C11.8648 14.1449 11.8846 14.1482 11.906 14.1482C11.9217 14.1482 11.9354 14.1471 11.9472 14.1449C11.9589 14.1427 11.9681 14.141 11.9746 14.1397L12.0099 14.3011C11.9986 14.3055 11.9825 14.3098 11.9615 14.3142C11.9406 14.319 11.9145 14.3216 11.8831 14.322C11.8317 14.3229 11.7837 14.3138 11.7393 14.2946C11.6948 14.2754 11.6589 14.2458 11.6314 14.2057C11.6039 14.1656 11.5902 14.1152 11.5902 14.0547V13.0642Z" fill="white"/>
<path d="M12.2983 14.6855C12.2691 14.6855 12.2425 14.6831 12.2185 14.6783C12.1945 14.674 12.1767 14.6692 12.1649 14.664L12.212 14.5038C12.2477 14.5134 12.2795 14.5175 12.3074 14.5162C12.3353 14.5149 12.3599 14.5044 12.3813 14.4848C12.4031 14.4652 12.4222 14.4332 12.4388 14.3887L12.463 14.322L12.0956 13.3048H12.3048L12.5591 14.0841H12.5696L12.8239 13.3048H13.0337L12.6199 14.443C12.6007 14.4953 12.5763 14.5395 12.5467 14.5757C12.517 14.6123 12.4817 14.6398 12.4408 14.6581C12.3998 14.6764 12.3523 14.6855 12.2983 14.6855Z" fill="white"/>
<path d="M7.03497 15.3131V16.652H6.8395V15.3131H7.03497Z" fill="white"/>
<path d="M7.68777 16.6722C7.59363 16.6722 7.51147 16.6507 7.44131 16.6075C7.37114 16.5644 7.31666 16.504 7.27787 16.4264C7.23908 16.3489 7.21969 16.2582 7.21969 16.1545C7.21969 16.0503 7.23908 15.9592 7.27787 15.8812C7.31666 15.8032 7.37114 15.7426 7.44131 15.6995C7.51147 15.6563 7.59363 15.6348 7.68777 15.6348C7.78191 15.6348 7.86406 15.6563 7.93423 15.6995C8.0044 15.7426 8.05887 15.8032 8.09766 15.8812C8.13645 15.9592 8.15585 16.0503 8.15585 16.1545C8.15585 16.2582 8.13645 16.3489 8.09766 16.4264C8.05887 16.504 8.0044 16.5644 7.93423 16.6075C7.86406 16.6507 7.78191 16.6722 7.68777 16.6722ZM7.68842 16.5082C7.74944 16.5082 7.79999 16.492 7.84009 16.4598C7.88018 16.4275 7.90982 16.3846 7.929 16.331C7.94861 16.2774 7.95842 16.2183 7.95842 16.1538C7.95842 16.0898 7.94861 16.0309 7.929 15.9773C7.90982 15.9233 7.88018 15.8799 7.84009 15.8472C7.79999 15.8145 7.74944 15.7982 7.68842 15.7982C7.62697 15.7982 7.57598 15.8145 7.53544 15.8472C7.49535 15.8799 7.46549 15.9233 7.44588 15.9773C7.42671 16.0309 7.41712 16.0898 7.41712 16.1538C7.41712 16.2183 7.42671 16.2774 7.44588 16.331C7.46549 16.3846 7.49535 16.4275 7.53544 16.4598C7.57598 16.492 7.62697 16.5082 7.68842 16.5082Z" fill="white"/>
<path d="M8.76387 16.6722C8.66668 16.6722 8.583 16.6502 8.51283 16.6062C8.4431 16.5618 8.38949 16.5005 8.35201 16.4225C8.31453 16.3445 8.29579 16.2552 8.29579 16.1545C8.29579 16.0525 8.31496 15.9625 8.35332 15.8845C8.39167 15.806 8.44571 15.7448 8.51544 15.7008C8.58518 15.6568 8.66733 15.6348 8.7619 15.6348C8.83817 15.6348 8.90616 15.6489 8.96587 15.6773C9.02558 15.7051 9.07374 15.7444 9.11035 15.7949C9.14739 15.8455 9.1694 15.9045 9.17638 15.9721H8.98614C8.97568 15.925 8.95171 15.8845 8.91423 15.8505C8.87718 15.8165 8.8275 15.7995 8.76517 15.7995C8.71069 15.7995 8.66297 15.8139 8.622 15.8427C8.58147 15.871 8.54987 15.9115 8.52721 15.9642C8.50455 16.0165 8.49322 16.0784 8.49322 16.1499C8.49322 16.2231 8.50433 16.2863 8.52656 16.3395C8.54878 16.3927 8.58016 16.4339 8.6207 16.4631C8.66166 16.4923 8.70982 16.5069 8.76517 16.5069C8.80222 16.5069 8.83578 16.5001 8.86585 16.4866C8.89636 16.4726 8.92185 16.4528 8.94234 16.4271C8.96326 16.4014 8.97786 16.3704 8.98614 16.3343H9.17638C9.1694 16.3992 9.14827 16.4572 9.11296 16.5082C9.07766 16.5592 9.03037 16.5992 8.9711 16.6284C8.91226 16.6576 8.84319 16.6722 8.76387 16.6722Z" fill="white"/>
<path d="M9.53205 16.3114L9.53074 16.0728H9.56474L9.96483 15.6478H10.1989L9.74256 16.1316H9.71183L9.53205 16.3114ZM9.35227 16.652V15.3131H9.54774V16.652H9.35227ZM9.9864 16.652L9.62684 16.1748L9.76152 16.0381L10.2263 16.652H9.9864Z" fill="white"/>
<path d="M10.7353 16.6722C10.6364 16.6722 10.5512 16.6511 10.4797 16.6088C10.4087 16.5661 10.3537 16.5062 10.3149 16.4291C10.2766 16.3515 10.2574 16.2606 10.2574 16.1564C10.2574 16.0536 10.2766 15.9629 10.3149 15.8845C10.3537 15.806 10.4078 15.7448 10.4771 15.7008C10.5468 15.6568 10.6283 15.6348 10.7216 15.6348C10.7782 15.6348 10.8331 15.6441 10.8863 15.6629C10.9395 15.6816 10.9872 15.711 11.0295 15.7511C11.0718 15.7912 11.1051 15.8433 11.1295 15.9074C11.1539 15.971 11.1661 16.0484 11.1661 16.1394V16.2087H10.3679V16.0623H10.9746C10.9746 16.0109 10.9641 15.9653 10.9432 15.9257C10.9223 15.8856 10.8929 15.854 10.8549 15.8309C10.8175 15.8078 10.7734 15.7962 10.7229 15.7962C10.668 15.7962 10.62 15.8097 10.5791 15.8368C10.5385 15.8634 10.5071 15.8982 10.4849 15.9414C10.4631 15.9841 10.4522 16.0305 10.4522 16.0806V16.195C10.4522 16.2621 10.464 16.3192 10.4875 16.3663C10.5115 16.4134 10.5448 16.4493 10.5876 16.4742C10.6303 16.4986 10.6802 16.5108 10.7373 16.5108C10.7743 16.5108 10.8081 16.5055 10.8386 16.4951C10.8691 16.4842 10.8955 16.4681 10.9177 16.4467C10.9399 16.4254 10.9569 16.399 10.9687 16.3676L11.1537 16.4009C11.1389 16.4554 11.1123 16.5031 11.0739 16.5441C11.036 16.5846 10.9883 16.6162 10.9308 16.6389C10.8737 16.6611 10.8085 16.6722 10.7353 16.6722Z" fill="white"/>
<path d="M11.7258 16.6716C11.6447 16.6716 11.5724 16.6509 11.5087 16.6095C11.4455 16.5677 11.3958 16.5082 11.3597 16.431C11.3239 16.3534 11.3061 16.2604 11.3061 16.1519C11.3061 16.0433 11.3241 15.9505 11.3603 15.8734C11.3969 15.7962 11.4471 15.7372 11.5107 15.6962C11.5743 15.6552 11.6464 15.6348 11.7271 15.6348C11.7894 15.6348 11.8395 15.6452 11.8774 15.6661C11.9158 15.6866 11.9454 15.7106 11.9663 15.7381C11.9877 15.7655 12.0043 15.7897 12.016 15.8106H12.0278V15.3131H12.2233V16.652H12.0324V16.4957H12.016C12.0043 16.5171 11.9873 16.5415 11.965 16.569C11.9432 16.5964 11.9132 16.6204 11.8748 16.6409C11.8365 16.6614 11.7868 16.6716 11.7258 16.6716ZM11.7689 16.5049C11.8251 16.5049 11.8726 16.4901 11.9114 16.4604C11.9506 16.4304 11.9803 16.3887 12.0003 16.3356C12.0208 16.2824 12.0311 16.2205 12.0311 16.1499C12.0311 16.0802 12.021 16.0192 12.001 15.9669C11.9809 15.9146 11.9515 15.8738 11.9127 15.8446C11.8739 15.8154 11.826 15.8008 11.7689 15.8008C11.7101 15.8008 11.661 15.8161 11.6218 15.8466C11.5826 15.8771 11.553 15.9187 11.5329 15.9714C11.5133 16.0242 11.5035 16.0837 11.5035 16.1499C11.5035 16.217 11.5135 16.2774 11.5336 16.331C11.5536 16.3846 11.5832 16.4271 11.6225 16.4585C11.6621 16.4894 11.7109 16.5049 11.7689 16.5049Z" fill="white"/>
</g>
<path d="M9.65502 5.79199C10.8379 5.79199 11.812 6.74871 11.812 7.94897C11.812 9.13182 10.8553 10.1059 9.65502 10.1059C8.47216 10.1059 7.49805 9.14922 7.49805 7.94897C7.49805 6.76611 8.47216 5.79199 9.65502 5.79199Z" fill="#DB2728"/>
<path d="M9.01037 8.43567C8.95819 8.45306 8.906 8.47046 8.83642 8.47046C8.5581 8.47046 8.34936 8.24432 8.34936 7.9834C8.34936 7.70508 8.5755 7.49634 8.83642 7.49634C8.85382 7.49634 8.87121 7.49634 8.87121 7.49634V7.2876C8.85382 7.2876 8.83642 7.2876 8.83642 7.2876C8.45373 7.2876 8.14062 7.60071 8.14062 7.9834C8.14062 8.36609 8.45373 8.67919 8.83642 8.67919C8.95819 8.67919 9.06256 8.6444 9.14953 8.60961C9.09735 8.54003 9.04516 8.48785 9.01037 8.43567Z" fill="white"/>
<path d="M9.32452 7.96539C9.32452 8.06976 9.28973 8.15673 9.23755 8.24371C9.27234 8.29589 9.32452 8.34808 9.37671 8.38287C9.46368 8.2611 9.51587 8.12194 9.51587 7.96539V6.9043H9.30713V7.47833C9.25494 7.42615 9.22015 7.39136 9.16797 7.35657V7.6001C9.27234 7.70446 9.32452 7.82623 9.32452 7.96539Z" fill="white"/>
<path d="M10.3501 6.50488C9.96741 6.50488 9.6543 6.81799 9.6543 7.20068V8.26177H9.86304V7.68774C9.91522 7.73992 9.9848 7.79211 10.0718 7.8269V7.60077C9.95001 7.51379 9.86304 7.35724 9.86304 7.20068C9.86304 6.92236 10.0892 6.71362 10.3501 6.71362C10.6284 6.71362 10.8372 6.93976 10.8372 7.20068C10.8372 7.46161 10.6284 7.68774 10.3675 7.68774V7.89648C10.7502 7.87908 11.0459 7.58337 11.0459 7.20068C11.0459 6.81799 10.7502 6.50488 10.3501 6.50488Z" fill="white"/>
<path d="M10.1243 8.01776C10.1243 8.29608 9.89813 8.50482 9.6372 8.50482C9.35889 8.50482 9.15015 8.27868 9.15015 8.01776V7.25238V7.06104H8.94141V7.25238V7.26977V8.05255C8.9762 8.41784 9.27191 8.69616 9.6372 8.69616C9.82855 8.69616 10.0025 8.60919 10.1243 8.48742V8.78314C10.1243 9.06146 9.89813 9.2702 9.6372 9.2702C9.49804 9.2702 9.35889 9.20062 9.27191 9.09625C9.21973 9.04406 9.18494 8.97448 9.16754 8.9223L8.99359 9.11364C9.02838 9.18322 9.06317 9.2354 9.11536 9.28759C9.23712 9.42675 9.42846 9.51372 9.61981 9.51372C9.91552 9.51372 10.1591 9.33977 10.2634 9.07885C10.2982 8.99188 10.3156 8.9049 10.3156 8.81793V8.13952V8.01776V7.33935H10.1069V8.01776H10.1243Z" fill="white"/>
<path d="M12.9605 8.36583L13.6389 8.31364L13.5346 7.00902L12.8736 7.06121C12.7692 6.69591 12.6126 6.34801 12.4039 6.0523L12.8562 5.56524L11.8995 4.6607L11.4472 5.13037C11.0993 4.92163 10.734 4.74768 10.3165 4.6781V4.01709H9.01189V4.6781C8.49004 4.78247 8.02038 5.0086 7.62029 5.32171L7.11584 4.88684L6.26349 5.87835L6.76794 6.31322C6.5592 6.67852 6.42004 7.11339 6.36786 7.54827L5.68945 7.60045L5.79382 8.90507L6.47223 8.85289C6.5766 9.21818 6.73315 9.54869 6.94189 9.8444L6.47223 10.3489L7.42895 11.2534L7.91601 10.7489C8.24651 10.9577 8.6292 11.1142 9.02928 11.1838V11.8796H10.3339V11.1838C10.8384 11.0794 11.308 10.8707 11.6907 10.5576L12.2126 11.0099L13.0649 10.0184L12.5431 9.56608C12.7518 9.21818 12.9084 8.8007 12.9605 8.36583ZM9.6555 10.0357C8.50744 10.0357 7.56811 9.09642 7.56811 7.94835C7.56811 6.80028 8.50744 5.86096 9.6555 5.86096C10.8036 5.86096 11.7429 6.80028 11.7429 7.94835C11.7429 9.11381 10.821 10.0357 9.6555 10.0357Z" fill="white"/>
<defs>
<linearGradient id="paint0_linear_281_1239" x1="6.48786" y1="18.8074" x2="20.1021" y2="-1.457" gradientUnits="userSpaceOnUse">
<stop stop-color="#E30613"/>
<stop offset="1" stop-color="#FC4F36"/>
</linearGradient>
<clipPath id="clip0_281_1239">
<rect width="2.78699" height="2.78699" fill="white" transform="translate(15.9102 1.34863)"/>
</clipPath>
</defs>
</svg>
