<svg width="22" height="22" viewBox="0 0 22 22" fill="none" xmlns="http://www.w3.org/2000/svg">
<path d="M20.9289 6.15065C20.7909 4.3079 20.0176 2.77842 18.4158 1.74648C17.4309 1.11995 16.3354 0.880393 15.1847 0.815897C14.8533 0.79747 14.5219 0.769829 14.1905 0.742188C11.8983 0.742188 9.60618 0.742188 7.3048 0.742188C6.76168 0.788256 6.20935 0.815897 5.66622 0.87118C2.81252 1.17523 0.870158 3.11933 0.566377 5.9848C0.511144 6.52841 0.474322 7.08123 0.4375 7.62484C0.4375 9.91906 0.4375 12.2133 0.4375 14.5167C0.501938 15.1893 0.520349 15.8711 0.630815 16.5253C1.1095 19.2802 3.03345 21.0953 5.83192 21.2427C8.28058 21.3717 10.7292 21.3533 13.1871 21.3441C14.2273 21.3441 15.286 21.3257 16.2986 21.1506C18.9958 20.6899 20.754 18.7274 20.9197 15.9725C21.0394 14.0192 21.0302 12.0566 21.0394 10.0941C21.0486 8.78577 21.0302 7.459 20.9289 6.15065ZM10.7569 16.3687C7.83872 16.3779 5.4545 14.0007 5.4545 11.0708C5.4545 8.1316 7.8019 5.76367 10.7385 5.76367C13.6658 5.76367 16.0408 8.12238 16.05 11.0524C16.05 13.9731 13.675 16.3595 10.7569 16.3687ZM16.2618 6.79561C15.5713 6.80482 15.0098 6.252 15.0098 5.56097C15.0098 4.87915 15.5345 4.33554 16.2157 4.31711C16.9153 4.29869 17.4769 4.8423 17.4861 5.53333C17.5045 6.21514 16.9522 6.78639 16.2618 6.79561Z" fill="#8E97CD"/>
</svg>
